<svg width="196" height="191" viewBox="0 0 196 191" fill="none" xmlns="http://www.w3.org/2000/svg">
<path d="M97.2321 184.489C150.932 184.489 194.464 171.241 194.464 154.897C194.464 138.554 150.932 125.305 97.2321 125.305C43.5323 125.305 0 138.554 0 154.897C0 171.241 43.5323 184.489 97.2321 184.489Z" fill="#EFDDC3"/>
<path d="M97.2321 190.829C150.932 190.829 194.464 177.58 194.464 161.237C194.464 144.893 150.932 131.645 97.2321 131.645C43.5323 131.645 0 144.893 0 161.237C0 177.58 43.5323 190.829 97.2321 190.829Z" fill="#795549"/>
<path d="M97.2319 154.897L97.2319 10.0762L97.2319 154.897Z" fill="black"/>
<path d="M97.2319 154.897L97.2319 10.0762" stroke="#2F9E4F" stroke-width="8" stroke-linecap="round"/>
<path d="M97.532 56.4979C53.3814 47.9866 9.81734 65.2954 6.18632 95.7811C54.5547 99.6269 88.8826 88.1233 97.532 56.4979Z" fill="#56C271"/>
<path d="M98.0119 56.4979C142.163 47.9866 185.727 65.2954 189.358 95.7811C140.989 99.6269 106.661 88.1233 98.0119 56.4979Z" fill="#56C271"/>
<path d="M97.4533 33.505C63.1958 24.9065 27.4479 38.6066 20.6698 61.8451C59.5821 65.9438 85.3875 57.6837 97.4533 33.505Z" fill="#7BE08F"/>
<path d="M97.4159 33.505C131.673 24.9065 167.421 38.6066 174.199 61.8451C135.287 65.9438 109.482 57.6837 97.4159 33.505Z" fill="#7BE08F"/>
<path d="M97.8528 6.13044C69.936 -0.75796 41.113 10.8469 35.9287 30.1561C67.5616 33.2823 88.3903 26.2558 97.8528 6.13044Z" fill="#7BE08F"/>
<path d="M97.2297 6.13044C125.147 -0.75796 153.969 10.8469 159.154 30.1561C127.521 33.2823 106.692 26.2558 97.2297 6.13044Z" fill="#7BE08F"/>
</svg>
