<svg width="209" height="200" viewBox="0 0 209 200" fill="none" xmlns="http://www.w3.org/2000/svg">
<path d="M111.764 193.291C165.464 193.291 208.996 180.042 208.996 163.698C208.996 147.355 165.464 134.106 111.764 134.106C58.0641 134.106 14.5317 147.355 14.5317 163.698C14.5317 180.042 58.0641 193.291 111.764 193.291Z" fill="#EFDDC3"/>
<path d="M111.764 199.631C165.464 199.631 208.996 186.382 208.996 170.038C208.996 153.695 165.464 140.446 111.764 140.446C58.0641 140.446 14.5317 153.695 14.5317 170.038C14.5317 186.382 58.0641 199.631 111.764 199.631Z" fill="#795549"/>
<path d="M97.1084 163.494C97.1084 170.951 93.2049 183.059 87.9075 183.059C82.6101 183.059 69.9443 157.552 69.9443 150.095C69.9443 142.639 90.8914 159.355 96.1888 159.355C101.486 159.355 97.1084 156.038 97.1084 163.494Z" fill="#FFD93C"/>
<path d="M125.897 163.494C125.897 170.951 129.801 183.059 135.098 183.059C140.396 183.059 153.062 157.552 153.062 150.095C153.062 142.639 132.114 159.355 126.817 159.355C121.52 159.355 125.897 156.038 125.897 163.494Z" fill="#FFD93C"/>
<path d="M53.7781 135.286C53.7781 157.911 77.4516 166.752 108.398 166.752C142.886 166.752 163.019 157.911 163.019 135.286C163.019 112.662 138.564 94.3213 108.398 94.3213C78.2324 94.3213 53.7781 112.662 53.7781 135.286Z" fill="#FFD93C"/>
<path d="M103.895 122.236C103.904 118.243 101.599 115.001 98.7462 114.995C95.8937 114.988 93.5741 118.22 93.5653 122.213C93.5565 126.206 95.8618 129.448 98.7143 129.455C101.567 129.461 103.886 126.229 103.895 122.236Z" fill="#66471B"/>
<path d="M130.747 122.265C130.755 118.272 128.449 115.031 125.597 115.025C122.745 115.019 120.426 118.251 120.418 122.244C120.41 126.237 122.716 129.478 125.568 129.484C128.42 129.489 130.739 126.257 130.747 122.265Z" fill="#66471B"/>
<path d="M126.567 141.896L97.6489 141.837C96.5092 141.835 95.5857 140.911 95.5867 139.767C95.5894 138.625 96.5177 137.702 97.6574 137.705L126.575 137.767C127.719 137.768 128.641 138.694 128.636 139.836C128.635 140.979 127.711 141.898 126.567 141.896Z" fill="#66471B"/>
<path d="M102.041 94.0508L102.041 10.5791Z" fill="black"/>
<path d="M102.041 94.0508L102.041 10.5791" stroke="#2F9E4F" stroke-width="8" stroke-linecap="round"/>
<path d="M102.041 29.2172C59.0764 11.1394 10.7412 18.3705 0 47.295C48.3352 61.7572 85.9293 58.1417 102.041 29.2172Z" fill="#56C271"/>
<path d="M102.041 29.2172C145.006 11.1394 193.341 18.3705 204.082 47.295C155.747 61.7572 118.153 58.1417 102.041 29.2172Z" fill="#56C271"/>
<path d="M102.041 7.52411C69.8176 -6.93813 32.2236 0.292993 21.4824 21.9864C59.0765 32.833 85.9294 29.2175 102.041 7.52411Z" fill="#7BE08F"/>
<path d="M102.041 7.52411C134.264 -6.93813 171.859 0.292993 182.6 21.9864C145.006 32.833 118.153 29.2175 102.041 7.52411Z" fill="#7BE08F"/>
</svg>
