<svg width="195" height="91" viewBox="0 0 195 91" fill="none" xmlns="http://www.w3.org/2000/svg">
<path d="M97.2321 84.2199C150.932 84.2199 194.464 70.971 194.464 54.6275C194.464 38.2841 150.932 25.0352 97.2321 25.0352C43.5323 25.0352 0 38.2841 0 54.6275C0 70.971 43.5323 84.2199 97.2321 84.2199Z" fill="#EFDDC3"/>
<path d="M97.2321 90.5598C150.932 90.5598 194.464 77.3108 194.464 60.9674C194.464 44.624 150.932 31.375 97.2321 31.375C43.5323 31.375 0 44.624 0 60.9674C0 77.3108 43.5323 90.5598 97.2321 90.5598Z" fill="#795549"/>
<path d="M42.6121 40.9652C42.6121 63.5896 67.0664 81.9303 97.2323 81.9303C127.398 81.9303 151.853 63.5896 151.853 40.9652C151.853 18.3407 127.398 -1.06893e-06 97.2323 -2.38753e-06C67.0664 -3.70612e-06 42.6121 18.3407 42.6121 40.9652Z" fill="#FFD93C"/>
<path d="M92.4133 35.1566C92.4222 31.1636 90.1169 27.9215 87.2643 27.9152C84.4118 27.9089 82.0922 31.1408 82.0833 35.1338C82.0745 39.1268 84.3798 42.3689 87.2324 42.3752C90.0849 42.3815 92.4045 39.1496 92.4133 35.1566Z" fill="#66471B"/>
<path d="M119.265 35.1851C119.273 31.1925 116.967 27.9513 114.115 27.9456C111.263 27.9398 108.944 31.1718 108.936 35.1644C108.928 39.1569 111.234 42.3982 114.086 42.4039C116.938 42.4097 119.257 39.1777 119.265 35.1851Z" fill="#66471B"/>
<path d="M115.085 54.8167L86.167 54.7578C85.0273 54.7554 84.1037 53.8311 84.1047 52.6871C84.1075 51.5454 85.0357 50.6225 86.1755 50.6249L115.093 50.6877C116.237 50.6887 117.159 51.6147 117.154 52.7562C117.153 53.8991 116.229 54.8187 115.085 54.8167Z" fill="#66471B"/>
</svg>
