<svg width="223" height="387" viewBox="0 0 223 387" fill="none" xmlns="http://www.w3.org/2000/svg">
<circle cx="44" cy="67" r="44" fill="#3BAA5C"/>
<path d="M125.776 380.185C179.476 380.185 223.008 366.936 223.008 350.592C223.008 334.249 179.476 321 125.776 321C72.0763 321 28.5439 334.249 28.5439 350.592C28.5439 366.936 72.0763 380.185 125.776 380.185Z" fill="#EFDDC3"/>
<path d="M125.776 386.525C179.476 386.525 223.008 373.276 223.008 356.932C223.008 340.589 179.476 327.34 125.776 327.34C72.0763 327.34 28.5439 340.589 28.5439 356.932C28.5439 373.276 72.0763 386.525 125.776 386.525Z" fill="#795549"/>
<path d="M72.2426 345.136C82.9766 365.342 116.208 368.82 134.864 368.016C197.787 365.307 166.176 314.126 157.444 290.944C144.659 257 156.31 253 147.81 231C147.81 221 147.208 203.869 147.81 156C147.879 150.507 182.341 55.0002 174.5 55.0002C175.823 47.7876 158.377 108.8 157.444 99.4695C153 55.0002 152.266 115.045 142.5 131.683C140.001 135.942 135.324 127.454 134.262 126.264C131.777 122.24 82 -5.99965 90.5 35.9995C40 -24.9991 105.729 58 117.5 151C121.656 183.831 115.185 191.612 110.5 198C106.121 200.129 88 156 69.5 103.5C42.5 7 63.4569 122.791 75.5 235.5C69.2143 257.791 56.5 315.5 72.2426 345.136Z" fill="#CBDE78"/>
<circle cx="158" cy="71" r="40" fill="#3BAA5C"/>
<circle cx="95" cy="68" r="68" fill="#56C271"/>
<circle cx="46" cy="134" r="42" fill="#7BE08F"/>
<circle cx="166" cy="102" r="29" fill="#7BE08F"/>
<path d="M97.5742 227.895C101.954 227.538 105.796 230.798 106.153 235.178C106.511 239.558 103.252 243.398 98.8698 243.756C94.4921 244.115 90.6484 240.854 90.2917 236.475C89.9334 232.093 93.1935 228.253 97.5742 227.895Z" fill="#F27792"/>
<path d="M135.572 240.542C139.753 239.187 142.043 234.699 140.687 230.519C139.332 226.338 134.844 224.048 130.664 225.404C126.483 226.759 124.193 231.247 125.549 235.427C126.904 239.608 131.392 241.898 135.572 240.542Z" fill="#F27792"/>
<path d="M130.949 238.944C130.644 238.714 130.221 238.733 129.938 238.982C129.878 239.033 124.093 244.092 116.513 244.71C108.955 245.327 102.399 241.279 102.34 241.237C102.015 241.038 101.596 241.091 101.335 241.366C101.074 241.642 101.047 242.067 101.266 242.374C101.498 242.699 107.05 250.275 116.903 249.469C126.755 248.663 131.004 240.285 131.179 239.928C131.348 239.59 131.25 239.176 130.949 238.944ZM99.4185 230.937C99.1785 230.957 98.932 230.923 98.6972 230.827C97.8809 230.5 97.4855 229.575 97.8157 228.758C97.8835 228.587 99.5739 224.537 105.245 224.075C110.92 223.61 113.243 227.33 113.338 227.488C113.795 228.241 113.556 229.222 112.805 229.676C112.056 230.13 111.091 229.895 110.629 229.157C110.55 229.037 109.123 226.953 105.506 227.247C101.829 227.549 100.775 229.921 100.766 229.945C100.534 230.524 99.9997 230.891 99.4185 230.937ZM131.146 228.343C130.562 228.392 129.975 228.119 129.653 227.583C129.606 227.513 128.187 225.393 124.54 225.691C120.892 225.988 119.835 228.312 119.793 228.41C119.441 229.206 118.515 229.584 117.712 229.252C116.911 228.913 116.522 228.01 116.845 227.202C116.916 227.031 118.605 222.981 124.279 222.52C129.953 222.055 132.278 225.776 132.374 225.932C132.831 226.685 132.59 227.665 131.84 228.122C131.621 228.251 131.382 228.325 131.146 228.343Z" fill="#66471B"/>
</svg>
