<svg width="262" height="387" viewBox="0 0 262 387" fill="none" xmlns="http://www.w3.org/2000/svg">
<circle cx="72" cy="67" r="44" fill="#3BAA5C"/>
<path d="M153.776 380.185C207.476 380.185 251.008 366.936 251.008 350.592C251.008 334.249 207.476 321 153.776 321C100.076 321 56.5439 334.249 56.5439 350.592C56.5439 366.936 100.076 380.185 153.776 380.185Z" fill="#EFDDC3"/>
<path d="M153.776 386.525C207.476 386.525 251.008 373.276 251.008 356.932C251.008 340.589 207.476 327.34 153.776 327.34C100.076 327.34 56.5439 340.589 56.5439 356.932C56.5439 373.276 100.076 386.525 153.776 386.525Z" fill="#795549"/>
<path d="M100.241 345.136C110.975 365.342 144.206 368.82 162.862 368.016C225.785 365.307 194.174 314.126 185.443 290.944C175.888 265.575 212.499 210 202.499 182.5C202.205 178.467 177.956 236.558 175.809 231C175.809 221 175.206 203.869 175.809 156C175.878 150.507 210.34 55.0002 202.499 55.0002C203.821 47.7876 186.375 108.8 185.443 99.4695C180.999 55.0002 180.265 115.045 170.499 131.683C167.999 135.942 163.322 127.454 162.261 126.264C159.775 122.24 109.998 -5.99965 118.498 35.9995C67.9984 -24.9991 133.728 58 145.499 151C149.654 183.831 143.183 191.612 138.498 198C134.119 200.129 115.998 156 97.4984 103.5C73.0617 16.1615 88.2734 119.719 100.241 220.5C91.9312 212.603 95.3929 217.541 89.9984 213.5C72.8498 200.652 71.9983 195.5 53.4983 177.5C13.4983 151 96.7449 240.448 97.4984 247.5C100.597 276.5 84.4984 315.5 100.241 345.136Z" fill="#CBDE78"/>
<circle cx="186" cy="71" r="40" fill="#3BAA5C"/>
<circle cx="229" cy="136" r="33" fill="#3BAA5C"/>
<circle cx="123" cy="68" r="68" fill="#56C271"/>
<circle cx="54" cy="134" r="54" fill="#56C271"/>
<circle cx="199" cy="164" r="53" fill="#56C271"/>
<path d="M178 192C182.418 192 186 188.418 186 184C186 179.582 182.418 176 178 176C173.582 176 170 179.582 170 184C170 188.418 173.582 192 178 192Z" fill="#FF5A5F"/>
<path d="M100 71C104.418 71 108 67.4183 108 63C108 58.5817 104.418 55 100 55C95.5817 55 92 58.5817 92 63C92 67.4183 95.5817 71 100 71Z" fill="#FF5A5F"/>
<path d="M30 144C34.4183 144 38 140.418 38 136C38 131.582 34.4183 128 30 128C25.5817 128 22 131.582 22 136C22 140.418 25.5817 144 30 144Z" fill="#FF5A5F"/>
<path d="M162 119C166.418 119 170 115.418 170 111C170 106.582 166.418 103 162 103C157.582 103 154 106.582 154 111C154 115.418 157.582 119 162 119Z" fill="#FF5A5F"/>
<path d="M212 87C216.418 87 220 83.4183 220 79C220 74.5817 216.418 71 212 71C207.582 71 204 74.5817 204 79C204 83.4183 207.582 87 212 87Z" fill="#FF5A5F"/>
<circle cx="85" cy="122" r="42" fill="#7BE08F"/>
<circle cx="154" cy="28" r="24" fill="#7BE08F"/>
<circle cx="229" cy="165" r="31" fill="#7BE08F"/>
<path d="M93 152C97.4183 152 101 148.418 101 144C101 139.582 97.4183 136 93 136C88.5817 136 85 139.582 85 144C85 148.418 88.5817 152 93 152Z" fill="#FF5A5F"/>
<path d="M137.346 242.253C137.355 238.26 135.049 235.018 132.197 235.011C129.344 235.005 127.025 238.237 127.016 242.23C127.007 246.223 129.312 249.465 132.165 249.471C135.018 249.478 137.337 246.246 137.346 242.253Z" fill="#66471B"/>
<path d="M164.197 242.281C164.205 238.289 161.9 235.047 159.048 235.042C156.196 235.036 153.877 238.268 153.869 242.261C153.861 246.253 156.167 249.494 159.019 249.5C161.871 249.506 164.189 246.274 164.197 242.281Z" fill="#66471B"/>
<path d="M160.018 261.913L131.1 261.854C129.96 261.852 129.036 260.927 129.037 259.783C129.04 258.642 129.968 257.719 131.108 257.721L160.026 257.784C161.17 257.785 162.091 258.711 162.087 259.852C162.086 260.995 161.162 261.915 160.018 261.913Z" fill="#66471B"/>
</svg>
