<svg width="262" height="387" viewBox="0 0 262 387" fill="none" xmlns="http://www.w3.org/2000/svg">
<circle cx="72" cy="67" r="44" fill="#3BAA5C"/>
<path d="M153.776 380.185C207.476 380.185 251.008 366.936 251.008 350.592C251.008 334.249 207.476 321 153.776 321C100.076 321 56.5439 334.249 56.5439 350.592C56.5439 366.936 100.076 380.185 153.776 380.185Z" fill="#EFDDC3"/>
<path d="M153.776 386.525C207.476 386.525 251.008 373.276 251.008 356.932C251.008 340.589 207.476 327.34 153.776 327.34C100.076 327.34 56.5439 340.589 56.5439 356.932C56.5439 373.276 100.076 386.525 153.776 386.525Z" fill="#795549"/>
<path d="M100.242 345.136C110.976 365.342 144.207 368.82 162.863 368.016C225.786 365.307 194.175 314.126 185.443 290.944C175.888 265.575 212.499 210 202.499 182.5C202.205 178.467 177.956 236.558 175.809 231C175.809 221 175.207 203.869 175.809 156C175.878 150.507 210.34 55.0002 202.499 55.0002C203.821 47.7876 186.375 108.8 185.443 99.4695C180.999 55.0002 180.265 115.045 170.499 131.683C168 135.942 163.323 127.454 162.261 126.264C159.776 122.24 109.999 -5.99965 118.499 35.9995C67.9989 -24.9991 133.728 58 145.499 151C149.655 183.831 143.184 191.612 138.499 198C134.12 200.129 115.999 156 97.4989 103.5C73.0622 16.1615 88.2739 119.719 100.242 220.5C91.9317 212.603 95.3934 217.541 89.9989 213.5C72.8503 200.652 71.9988 195.5 53.4988 177.5C13.4988 151 96.7454 240.448 97.4989 247.5C100.598 276.5 84.4989 315.5 100.242 345.136Z" fill="#CBDE78"/>
<circle cx="186" cy="71" r="40" fill="#3BAA5C"/>
<circle cx="229" cy="136" r="33" fill="#3BAA5C"/>
<circle cx="123" cy="68" r="68" fill="#56C271"/>
<circle cx="54" cy="134" r="54" fill="#56C271"/>
<circle cx="199" cy="164" r="53" fill="#56C271"/>
<circle cx="85" cy="122" r="42" fill="#7BE08F"/>
<circle cx="154" cy="28" r="24" fill="#7BE08F"/>
<circle cx="229" cy="165" r="31" fill="#7BE08F"/>
<path d="M133.346 229.253C133.355 225.26 131.049 222.018 128.197 222.011C125.344 222.005 123.025 225.237 123.016 229.23C123.007 233.223 125.312 236.465 128.165 236.471C131.018 236.478 133.337 233.246 133.346 229.253Z" fill="#66471B"/>
<path d="M160.197 229.281C160.205 225.289 157.9 222.047 155.048 222.042C152.196 222.036 149.877 225.268 149.869 229.261C149.861 233.253 152.167 236.494 155.019 236.5C157.871 236.506 160.189 233.274 160.197 229.281Z" fill="#66471B"/>
<path d="M156.018 248.913L127.1 248.854C125.96 248.852 125.036 247.927 125.037 246.783C125.04 245.642 125.968 244.719 127.108 244.721L156.026 244.784C157.17 244.785 158.091 245.711 158.087 246.852C158.086 247.995 157.162 248.915 156.018 248.913Z" fill="#66471B"/>
</svg>
