<svg width="195" height="154" viewBox="0 0 195 154" fill="none" xmlns="http://www.w3.org/2000/svg">
<path d="M97.2321 147.28C150.932 147.28 194.464 134.031 194.464 117.688C194.464 101.344 150.932 88.0952 97.2321 88.0952C43.5323 88.0952 0 101.344 0 117.688C0 134.031 43.5323 147.28 97.2321 147.28Z" fill="#EFDDC3"/>
<path d="M97.2321 153.62C150.932 153.62 194.464 140.371 194.464 124.027C194.464 107.684 150.932 94.4351 97.2321 94.4351C43.5323 94.4351 0 107.684 0 124.027C0 140.371 43.5323 153.62 97.2321 153.62Z" fill="#795549"/>
<path d="M42.6121 104.025C42.6121 126.65 67.0664 144.99 97.2323 144.99C127.398 144.99 151.853 126.65 151.853 104.025C151.853 81.4008 127.398 63.0601 97.2323 63.0601C67.0664 63.0601 42.6121 81.4008 42.6121 104.025Z" fill="#FFD93C"/>
<path d="M97.2324 33.4224V64.0699Z" fill="black"/>
<path d="M97.2324 33.4224V64.0699" stroke="#D6A63D" stroke-width="3" stroke-linecap="round"/>
<path d="M97.2324 68.4491L97.2324 18.52Z" fill="black"/>
<path d="M97.2324 68.4491L97.2324 18.52" stroke="#3BAA5C" stroke-width="6" stroke-linecap="round"/>
<path d="M97.2324 15.9084C75.3413 -5.98269 44.6937 -5.98269 31.5591 20.2866C57.8284 33.4213 79.7195 33.4213 97.2324 15.9084Z" fill="#56C271"/>
<path d="M97.2324 15.9084C119.124 -5.98269 149.771 -5.98269 162.906 20.2866C136.636 33.4213 114.745 33.4213 97.2324 15.9084Z" fill="#56C271"/>
<path opacity="0.65" d="M97.2322 15.9096C79.7193 -1.60332 57.8282 -1.60332 49.0718 15.9096C68.7738 24.666 84.0976 24.666 97.2322 15.9096Z" fill="#7BE08F"/>
<path opacity="0.65" d="M97.2324 15.9096C114.745 -1.60332 136.636 -1.60332 145.393 15.9096C125.691 24.666 110.367 24.666 97.2324 15.9096Z" fill="#7BE08F"/>
<path d="M98.7473 110.305C92.4719 110.406 88.2995 109.747 83.1398 108.827C81.958 108.621 79.6744 108.887 79.7369 112.35C79.8466 119.273 87.9439 127.798 99.0303 127.615C110.118 127.434 117.932 118.65 117.82 111.726C117.765 108.267 115.472 108.072 114.302 108.321C109.168 109.407 105.02 110.205 98.7473 110.305Z" fill="#66471B"/>
<path d="M83.194 112.292C83.194 112.292 88.4159 113.937 98.8044 113.767C109.188 113.599 114.355 111.782 114.355 111.782C114.355 111.782 111.007 118.762 98.8848 118.959C86.7685 119.161 83.194 112.292 83.194 112.292Z" fill="white"/>
<path d="M94.2659 81.6559L86.424 83.174L82.2537 75.8764C81.7936 75.0693 80.8705 74.6504 79.9659 74.8258C79.0518 75.004 78.3578 75.7389 78.2337 76.6505L77.078 84.9806L69.2367 86.4936C68.3157 86.6748 67.6127 87.4295 67.5015 88.3636C67.3925 89.3005 67.8971 90.2006 68.7525 90.5875L75.8602 93.8192L74.694 102.17C74.5674 103.102 75.0527 104.01 75.8989 104.418C76.2113 104.569 76.5444 104.637 76.8734 104.634C77.443 104.625 77.9989 104.392 78.4081 103.964L84.3868 97.6973L92.2673 101.287C93.1232 101.671 94.1313 101.47 94.7659 100.772C95.3947 100.08 95.5063 99.0586 95.0435 98.242L90.8553 90.9201L96.2452 85.2758C96.8959 84.5954 97.0299 83.5729 96.5844 82.7429C96.1264 81.9191 95.1847 81.4822 94.2659 81.6559ZM102.292 81.5258L110.175 82.7836L114.107 75.3564C114.54 74.538 115.449 74.0842 116.363 74.232C117.274 74.3782 117.998 75.0891 118.154 76.0018L119.579 84.2858L127.465 85.5439C128.397 85.6914 129.12 86.4283 129.259 87.357C129.402 88.2876 128.927 89.2024 128.08 89.6197L121.094 93.0791L122.524 101.39C122.681 102.313 122.229 103.237 121.397 103.673C121.088 103.836 120.757 103.917 120.428 103.922C119.861 103.93 119.297 103.718 118.873 103.301L112.692 97.2357L104.93 101.077C104.089 101.492 103.074 101.319 102.421 100.647C101.767 99.9746 101.622 98.9551 102.058 98.1241L106.002 90.6724L100.431 85.2082C99.7596 84.5508 99.5906 83.5322 100.014 82.6841C100.444 81.8444 101.365 81.3803 102.292 81.5258Z" fill="#E96028"/>
</svg>
