<svg width="195" height="159" viewBox="0 0 195 159" fill="none" xmlns="http://www.w3.org/2000/svg">
<path d="M97.2321 152.004C150.932 152.004 194.464 138.755 194.464 122.412C194.464 106.068 150.932 92.8193 97.2321 92.8193C43.5323 92.8193 0 106.068 0 122.412C0 138.755 43.5323 152.004 97.2321 152.004Z" fill="#EFDDC3"/>
<path d="M97.2321 158.344C150.932 158.344 194.464 145.095 194.464 128.752C194.464 112.408 150.932 99.1592 97.2321 99.1592C43.5323 99.1592 0 112.408 0 128.752C0 145.095 43.5323 158.344 97.2321 158.344Z" fill="#795549"/>
<path d="M97.2319 122.411L97.2319 10.0225" stroke="#C1694F" stroke-width="14" stroke-linecap="round"/>
<path d="M85.6009 54.8621C128.214 40.514 173.704 51.832 181.385 81.5566C133.968 91.8461 98.4082 85.044 85.6009 54.8621Z" fill="#3BAA5C"/>
<path d="M82.2708 30.2234C124.884 15.8753 170.374 27.1933 178.055 56.9179C130.638 67.2075 95.0781 60.4053 82.2708 30.2234Z" fill="#56C271"/>
<path d="M78.6004 7.51737C111.398 -5.59202 148.658 3.19655 158.488 25.3179C120.475 34.5915 93.7959 29.8621 78.6004 7.51737Z" fill="#7BE08F"/>
<path d="M108.208 54.8621C65.5948 40.514 20.105 51.832 12.4235 81.5566C59.8409 91.8461 95.4004 85.044 108.208 54.8621Z" fill="#3BAA5C"/>
<path d="M111.538 30.2234C68.9249 15.8753 23.4351 27.1933 15.7536 56.9179C63.171 67.2075 98.7304 60.4053 111.538 30.2234Z" fill="#56C271"/>
<path d="M115.208 7.51737C82.411 -5.59202 45.1503 3.19655 35.3208 25.3179C73.3335 34.5915 100.013 29.8621 115.208 7.51737Z" fill="#7BE08F"/>
</svg>
