<svg width="209" height="266" viewBox="0 0 209 266" fill="none" xmlns="http://www.w3.org/2000/svg">
<path d="M97.2321 259.307C150.932 259.307 194.464 246.058 194.464 229.715C194.464 213.372 150.932 200.123 97.2321 200.123C43.5323 200.123 0 213.372 0 229.715C0 246.058 43.5323 259.307 97.2321 259.307Z" fill="#EFDDC3"/>
<path d="M97.2321 265.647C150.932 265.647 194.464 252.398 194.464 236.055C194.464 219.711 150.932 206.462 97.2321 206.462C43.5323 206.462 0 219.711 0 236.055C0 252.398 43.5323 265.647 97.2321 265.647Z" fill="#795549"/>
<path d="M79.708 223.315C79.708 230.771 75.8045 242.879 70.5071 242.879C65.2097 242.879 52.5439 217.372 52.5439 209.916C52.5439 202.459 73.491 219.175 78.7884 219.175C84.0858 219.175 79.708 215.858 79.708 223.315Z" fill="#A5B55F"/>
<path d="M39.2606 209.586C36.8991 216.659 31.5129 210.689 30.5524 204.043C30.417 191.873 38.9291 164.199 46.1881 161.352C48.2473 155.187 40.1018 180.874 45.1264 182.552C50.151 184.23 42.7406 207.057 39.2606 209.586Z" fill="#B7CA65"/>
<path d="M140.485 209.679C142.393 216.887 148.147 211.271 149.527 204.699C150.434 192.563 143.693 164.405 136.63 161.103C134.965 154.82 141.466 180.972 136.345 182.328C131.224 183.684 137.172 206.935 140.485 209.679Z" fill="#B7CA65"/>
<path d="M106.699 223.315C106.699 230.771 110.603 242.879 115.9 242.879C121.198 242.879 133.863 217.372 133.863 209.916C133.863 202.459 112.916 219.175 107.619 219.175C102.321 219.175 106.699 215.858 106.699 223.315Z" fill="#A5B55F"/>
<path d="M97.9072 25.4872C105.527 13.386 103.224 41.135 107.444 48.4452C108.681 50.5875 110.492 54.004 112.093 57.9618C113.716 55.139 115.354 52.2406 116.985 49.2499C138.078 28.1577 118.186 80.9007 112.205 112.894C130.398 131.644 142 170.061 142 191.5C142 220.604 124.951 230.051 90.3906 230.051C86.7305 230.051 83.2532 229.917 79.9668 229.637C78.7292 229.907 77.4429 230.052 76.1045 230.052C73.4867 230.052 71.4225 229.384 69.8311 228.154C51.6169 224.162 41.5001 213.393 41.5 191.5C41.5 163 59.3928 104.5 88.5205 102.08C91.3145 94.5766 95.1749 87.154 99.5967 79.3778C97.4194 71.2428 97.2536 58.8536 94.7871 54.5809C90.5668 47.271 95.5223 37.9148 97.9072 25.4872Z" fill="#CBDE78"/>
<path d="M118.202 48.5219C152.66 22.0774 194.852 18.5851 207.623 43.8275C168.127 67.9817 135.561 72.6111 118.202 48.5219Z" fill="#56C271"/>
<path d="M104.07 28.925C95.035 12.1402 72.1202 3.53328 55.4968 10.0112C69.1307 26.8497 84.703 33.703 104.07 28.925Z" fill="#7BE08F"/>
<path d="M119.855 49.9679C131.646 20.6799 159.495 7.76933 178.926 21.3913C161.646 50.2459 142.66 60.8344 119.855 49.9679Z" fill="#7BE08F"/>
<path d="M90.802 150.253C90.8108 146.26 88.5055 143.018 85.653 143.011C82.8004 143.005 80.4808 146.237 80.472 150.23C80.4632 154.223 82.7685 157.465 85.6211 157.471C88.4736 157.478 90.7932 154.246 90.802 150.253Z" fill="#66471B"/>
<path d="M117.653 150.281C117.661 146.289 115.356 143.047 112.504 143.042C109.652 143.036 107.333 146.268 107.325 150.261C107.317 154.253 109.623 157.494 112.475 157.5C115.327 157.506 117.645 154.274 117.653 150.281Z" fill="#66471B"/>
<path d="M113.474 169.913L84.5556 169.854C83.4159 169.852 82.4924 168.927 82.4934 167.783C82.4961 166.642 83.4244 165.719 84.5641 165.721L113.482 165.784C114.626 165.785 115.547 166.711 115.543 167.852C115.542 168.995 114.618 169.915 113.474 169.913Z" fill="#66471B"/>
</svg>
