<svg width="195" height="224" viewBox="0 0 195 224" fill="none" xmlns="http://www.w3.org/2000/svg">
<path d="M101.896 81.5714C97.2061 89.6954 101.305 124.979 86.5296 116.449C70.0629 106.942 82.1099 82.2826 86.8002 74.1587C91.4905 66.0347 84.5668 24.2632 93.9628 38.248C97.2209 52.4103 106.587 73.4475 101.896 81.5714Z" fill="#CBDE78"/>
<path d="M97.2321 217.307C150.932 217.307 194.464 204.058 194.464 187.715C194.464 171.372 150.932 158.123 97.2321 158.123C43.5323 158.123 0 171.372 0 187.715C0 204.058 43.5323 217.307 97.2321 217.307Z" fill="#EFDDC3"/>
<path d="M97.2321 223.647C150.932 223.647 194.464 210.398 194.464 194.055C194.464 177.711 150.932 164.462 97.2321 164.462C43.5323 164.462 0 177.711 0 194.055C0 210.398 43.5323 223.647 97.2321 223.647Z" fill="#795549"/>
<path d="M84.2124 181.315C84.2124 188.771 80.3089 200.879 75.0115 200.879C69.7141 200.879 57.0483 175.372 57.0483 167.916C57.0483 160.459 77.9954 177.175 83.2928 177.175C88.5902 177.175 84.2124 173.858 84.2124 181.315Z" fill="#F4CD2E"/>
<path d="M43.765 167.586C41.4035 174.659 36.0173 168.689 35.0568 162.043C34.9214 149.873 43.4335 122.199 50.6925 119.352C52.7517 113.187 44.6062 138.874 49.6308 140.552C54.6554 142.23 47.245 165.057 43.765 167.586Z" fill="#F4CD2E"/>
<path d="M144.077 177.679C145.985 184.887 151.739 179.271 153.119 172.699C154.026 160.563 147.286 132.405 140.222 129.103C138.558 122.82 145.058 148.972 139.937 150.328C134.816 151.684 140.764 174.935 144.077 177.679Z" fill="#F4CD2E"/>
<path d="M102.748 181.315C102.748 188.771 106.651 200.879 111.948 200.879C117.246 200.879 129.912 175.372 129.912 167.916C129.912 160.459 108.965 177.175 103.667 177.175C98.3697 177.175 102.748 173.858 102.748 181.315Z" fill="#F4CD2E"/>
<path d="M43.2667 145C43.2667 167.624 63.6017 188.051 94.5484 188.051C129.036 188.051 146.048 167.624 146.048 145C146.048 122.376 121.613 80 91.4467 80C61.2808 80 43.2667 122.376 43.2667 145Z" fill="#FFD93C"/>
<path d="M88.7293 42.4322C123.187 22.6348 165.378 20.0203 178.149 38.9178C138.654 57.0005 106.088 60.4662 88.7293 42.4322Z" fill="#56C271"/>
<path d="M96.118 42.925C87.0834 26.1402 64.1685 17.5333 47.5451 24.0112C61.1791 40.8497 76.7513 47.703 96.118 42.925Z" fill="#7BE08F"/>
<path d="M88.903 35.9106C100.695 13.9845 128.543 4.31914 147.974 14.517C130.694 36.1187 111.708 44.0457 88.903 35.9106Z" fill="#7BE08F"/>
<path d="M95.8157 126.797C90.4486 126.884 86.88 126.32 82.4671 125.534C81.4563 125.357 79.5032 125.585 79.5567 128.547C79.6505 134.468 86.5758 141.759 96.0578 141.603C105.541 141.448 112.224 133.935 112.128 128.013C112.081 125.054 110.12 124.888 109.12 125.101C104.728 126.029 101.18 126.712 95.8157 126.797Z" fill="#66471B"/>
<path d="M82.5133 128.498C82.5133 128.498 86.9794 129.904 95.8644 129.759C104.745 129.615 109.164 128.061 109.164 128.061C109.164 128.061 106.301 134.031 95.9331 134.2C85.5704 134.372 82.5133 128.498 82.5133 128.498Z" fill="white"/>
<path d="M91.983 102.295L85.2761 103.594L81.7093 97.3523C81.3158 96.662 80.5263 96.3037 79.7526 96.4537C78.9708 96.6061 78.3772 97.2347 78.2711 98.0143L77.2827 105.139L70.5763 106.433C69.7886 106.588 69.1874 107.233 69.0922 108.032C68.999 108.834 69.4306 109.603 70.1621 109.934L76.2411 112.698L75.2437 119.841C75.1354 120.638 75.5505 121.414 76.2743 121.763C76.5414 121.893 76.8264 121.95 77.1077 121.948C77.5949 121.94 78.0703 121.741 78.4203 121.375L83.5337 116.015L90.2737 119.086C91.0057 119.413 91.8679 119.242 92.4107 118.645C92.9484 118.053 93.0439 117.179 92.6481 116.481L89.066 110.219L93.6758 105.391C94.2323 104.809 94.3469 103.935 93.9659 103.225C93.5742 102.52 92.7688 102.147 91.983 102.295ZM98.8475 102.184L105.59 103.26L108.952 96.9075C109.323 96.2076 110.1 95.8194 110.882 95.9459C111.661 96.0709 112.28 96.6789 112.414 97.4595L113.633 104.545L120.377 105.621C121.175 105.747 121.793 106.377 121.911 107.171C122.034 107.967 121.628 108.75 120.903 109.106L114.928 112.065L116.151 119.173C116.286 119.963 115.899 120.753 115.187 121.126C114.923 121.265 114.64 121.334 114.359 121.338C113.874 121.346 113.391 121.164 113.029 120.808L107.742 115.62L101.103 118.905C100.384 119.261 99.5164 119.112 98.9579 118.538C98.3984 117.963 98.274 117.091 98.647 116.38L102.021 110.007L97.2561 105.333C96.6816 104.771 96.5371 103.9 96.8996 103.175C97.2668 102.456 98.0545 102.06 98.8475 102.184Z" fill="#E96028"/>
</svg>
