<svg width="205" height="228" viewBox="0 0 205 228" fill="none" xmlns="http://www.w3.org/2000/svg">
<path d="M104.764 221.291C158.464 221.291 201.996 208.042 201.996 191.698C201.996 175.355 158.464 162.106 104.764 162.106C51.0641 162.106 7.53174 175.355 7.53174 191.698C7.53174 208.042 51.0641 221.291 104.764 221.291Z" fill="#EFDDC3"/>
<path d="M104.764 227.631C158.464 227.631 201.996 214.382 201.996 198.038C201.996 181.695 158.464 168.446 104.764 168.446C51.0641 168.446 7.53174 181.695 7.53174 198.038C7.53174 214.382 51.0641 227.631 104.764 227.631Z" fill="#795549"/>
<path d="M90.1084 191.494C90.1084 198.951 86.2049 211.059 80.9075 211.059C75.6101 211.059 62.9443 185.552 62.9443 178.095C62.9443 170.639 83.8914 187.355 89.1888 187.355C94.4862 187.355 90.1084 184.038 90.1084 191.494Z" fill="#FFD93C"/>
<path d="M118.897 191.494C118.897 198.951 122.801 211.059 128.098 211.059C133.396 211.059 146.062 185.552 146.062 178.095C146.062 170.639 125.114 187.355 119.817 187.355C114.52 187.355 118.897 184.038 118.897 191.494Z" fill="#FFD93C"/>
<path d="M101.398 86C131.564 86.0001 156.018 140.662 156.019 163.286C156.019 185.911 135.886 194.752 101.398 194.752C70.4517 194.752 46.7783 185.911 46.7783 163.286C46.7785 140.662 71.2326 86 101.398 86Z" fill="#FFD93C"/>
<path d="M98.346 126.253C98.3548 122.26 96.0495 119.018 93.1969 119.011C90.3444 119.005 88.0248 122.237 88.016 126.23C88.0071 130.223 90.3125 133.465 93.165 133.471C96.0175 133.478 98.3372 130.246 98.346 126.253Z" fill="#66471B"/>
<path d="M125.197 126.281C125.205 122.289 122.9 119.047 120.048 119.042C117.196 119.036 114.877 122.268 114.869 126.261C114.861 130.253 117.167 133.494 120.019 133.5C122.871 133.506 125.189 130.274 125.197 126.281Z" fill="#66471B"/>
<path d="M121.018 145.913L92.0996 145.854C90.9599 145.852 90.0364 144.927 90.0374 143.783C90.0401 142.642 90.9684 141.719 92.1081 141.721L121.026 141.784C122.17 141.785 123.091 142.711 123.087 143.852C123.086 144.995 122.162 145.915 121.018 145.913Z" fill="#66471B"/>
<path d="M102.041 94.0508L102.041 10.5791Z" fill="black"/>
<path d="M102.041 94.0508L102.041 10.5791" stroke="#2F9E4F" stroke-width="8" stroke-linecap="round"/>
<path d="M102.041 29.2172C59.0764 11.1394 10.7412 18.3705 0 47.295C48.3352 61.7572 85.9293 58.1417 102.041 29.2172Z" fill="#56C271"/>
<path d="M102.041 29.2172C145.006 11.1394 193.341 18.3705 204.082 47.295C155.747 61.7572 118.153 58.1417 102.041 29.2172Z" fill="#56C271"/>
<path d="M102.041 7.52411C69.8176 -6.93813 32.2236 0.292993 21.4824 21.9864C59.0765 32.833 85.9294 29.2175 102.041 7.52411Z" fill="#7BE08F"/>
<path d="M102.041 7.52411C134.264 -6.93813 171.859 0.292993 182.6 21.9864C145.006 32.833 118.153 29.2175 102.041 7.52411Z" fill="#7BE08F"/>
</svg>
