<svg width="198" height="356" viewBox="0 0 198 356" fill="none" xmlns="http://www.w3.org/2000/svg">
<path d="M100.776 349.185C154.476 349.185 198.008 335.936 198.008 319.592C198.008 303.249 154.476 290 100.776 290C47.0763 290 3.54395 303.249 3.54395 319.592C3.54395 335.936 47.0763 349.185 100.776 349.185Z" fill="#EFDDC3"/>
<path d="M100.776 355.525C154.476 355.525 198.008 342.276 198.008 325.932C198.008 309.589 154.476 296.34 100.776 296.34C47.0763 296.34 3.54395 309.589 3.54395 325.932C3.54395 342.276 47.0763 355.525 100.776 355.525Z" fill="#795549"/>
<path d="M47.2423 311.136C47.2423 334.017 91.2075 334.82 109.864 334.017C172.787 331.307 141.175 280.127 132.444 256.945C127.374 236.123 134.242 197.861 122.81 184.39C119.08 179.995 124.315 145.553 124.917 97.6837C124.986 92.1903 129.132 99.4901 136.659 79.921C137.981 72.7084 139.368 71.7923 132.444 65.4699C129.696 62.9607 124.748 71.7122 114.982 88.3508C112.483 92.6092 110.324 93.4548 109.262 92.2646C106.776 88.2403 83.7917 45.2988 74.0375 54.3301C65.9088 61.8569 89.7654 95.0297 94.5099 111.833C91.4992 137.423 90.4641 165.96 85.779 172.348C81.4 174.477 69.2205 137.122 62.296 132.305C52.9631 127.187 45.1354 113.939 59.2854 218.709C52.1306 239.399 47.2423 272.033 47.2423 311.136Z" fill="#CBDE78"/>
<path d="M87.0255 59.254C71.1074 37.2377 46.6613 30.8336 34.7503 47.6073C54.0515 68.4619 72.5887 74.7809 87.0255 59.254Z" fill="#7BE08F"/>
<path d="M128.923 67.9262C137.842 54.2426 152.348 49.55 160.003 59.1114C149.017 72.2248 138.06 76.6543 128.923 67.9262Z" fill="#56C271"/>
<path d="M86.5318 60.6841C59.9885 45.0495 30.3505 47.056 23.9854 66.9189C53.7991 80.3318 76.8671 80.1989 86.5318 60.6841Z" fill="#56C271"/>
<path d="M61.1162 136.648C52.712 116.416 34.6565 108.721 22.1218 121.94C33.4095 141.49 46.826 148.573 61.1162 136.648Z" fill="#56C271"/>
<circle cx="57" cy="57" r="57" fill="#56C271"/>
<circle cx="36" cy="121" r="32" fill="#7BE08F"/>
<circle cx="150" cy="69" r="32" fill="#7BE08F"/>
<path d="M88.346 214.253C88.3548 210.26 86.0495 207.018 83.1969 207.011C80.3444 207.005 78.0248 210.237 78.016 214.23C78.0071 218.223 80.3125 221.465 83.165 221.471C86.0175 221.478 88.3372 218.246 88.346 214.253Z" fill="#66471B"/>
<path d="M115.197 214.281C115.205 210.289 112.9 207.047 110.048 207.042C107.196 207.036 104.877 210.268 104.869 214.261C104.861 218.253 107.167 221.494 110.019 221.5C112.871 221.506 115.189 218.274 115.197 214.281Z" fill="#66471B"/>
<path d="M111.018 233.913L82.0996 233.854C80.9599 233.852 80.0364 232.927 80.0374 231.783C80.0401 230.642 80.9684 229.719 82.1081 229.721L111.026 229.784C112.17 229.785 113.091 230.711 113.087 231.852C113.086 232.995 112.162 233.915 111.018 233.913Z" fill="#66471B"/>
</svg>
