<svg width="195" height="181" viewBox="0 0 195 181" fill="none" xmlns="http://www.w3.org/2000/svg">
<path d="M97.2321 174.247C150.932 174.247 194.464 160.998 194.464 144.655C194.464 128.311 150.932 115.062 97.2321 115.062C43.5323 115.062 0 128.311 0 144.655C0 160.998 43.5323 174.247 97.2321 174.247Z" fill="#EFDDC3"/>
<path d="M97.2321 180.587C150.932 180.587 194.464 167.338 194.464 150.995C194.464 134.651 150.932 121.402 97.2321 121.402C43.5323 121.402 0 134.651 0 150.995C0 167.338 43.5323 180.587 97.2321 180.587Z" fill="#795549"/>
<path d="M97.2319 156.088V13.9238" stroke="#C1694F" stroke-width="14" stroke-linecap="round"/>
<path d="M64.3101 146.713L77.5573 140.321L92.561 126.4" stroke="#C1694F" stroke-width="12" stroke-linecap="round"/>
<path d="M130.154 146.713L116.907 140.321L101.903 126.4" stroke="#C1694F" stroke-width="12" stroke-linecap="round"/>
<path d="M90.9879 78.2043C128.793 62.2746 169.151 74.8402 175.966 107.841C133.898 119.265 102.35 111.713 90.9879 78.2043Z" fill="#3BAA5C"/>
<path d="M88.0333 50.8508C125.839 34.9211 166.196 47.4866 173.011 80.4878C130.943 91.9115 99.3957 84.3596 88.0333 50.8508Z" fill="#56C271"/>
<path d="M84.7774 25.6417C113.874 11.0873 146.931 20.8446 155.652 45.4044C121.928 55.7002 98.2585 50.4495 84.7774 25.6417Z" fill="#7BE08F"/>
<path d="M89.2745 6.14811C114.359 -2.00045 141.649 8.1892 147.839 27.1389C119.068 31.7215 99.4475 25.7094 89.2745 6.14811Z" fill="#96EEA7"/>
<path d="M103.476 78.2043C65.6711 62.2746 25.3133 74.8402 18.4985 107.841C60.5663 119.265 92.114 111.713 103.476 78.2043Z" fill="#3BAA5C"/>
<path d="M106.431 50.8508C68.6257 34.9211 28.2679 47.4866 21.4531 80.4878C63.5209 91.9115 95.0686 84.3596 106.431 50.8508Z" fill="#56C271"/>
<path d="M109.687 25.6417C80.59 11.0873 47.5329 20.8446 38.8123 45.4044C72.5365 55.7002 96.2059 50.4495 109.687 25.6417Z" fill="#7BE08F"/>
<path d="M105.19 6.14811C80.1058 -2.00045 52.8152 8.1892 46.6255 27.1389C75.3967 31.7215 95.0169 25.7094 105.19 6.14811Z" fill="#96EEA7"/>
</svg>
