<svg width="205" height="205" viewBox="0 0 205 205" fill="none" xmlns="http://www.w3.org/2000/svg">
<circle cx="102.041" cy="102.041" r="102.041" fill="#795549"/>
<path d="M158.291 92.3674C158.291 90.8012 157.917 89.3315 157.291 87.9957C153.116 74.5257 133.568 75.5096 105.762 74.8526C101.113 74.7436 103.772 69.2541 105.404 57.2039C106.466 49.3666 101.412 37.332 92.918 37.332C78.9124 37.332 92.3855 48.3796 80.0022 75.6995C73.3855 90.2968 58.5952 82.1201 58.5952 96.7827V130.159C58.5952 135.866 59.1557 141.353 67.1829 142.256C74.9641 143.131 73.2142 148.676 84.4393 148.676H140.624C146.347 148.676 151.002 144.018 151.002 138.295C151.002 135.922 150.17 133.761 148.828 132.012C152.004 130.234 154.184 126.877 154.184 122.985C154.184 120.618 153.356 118.457 152.017 116.711C155.202 114.936 157.388 111.576 157.388 107.678C157.388 104.847 156.242 102.282 154.396 100.404C156.753 98.5015 158.291 95.6244 158.291 92.3674Z" fill="#DBA67A"/>
<path d="M121.125 102.744H147.916C151.559 102.744 154.978 100.795 156.84 97.6597C157.606 96.3675 157.179 94.6955 155.884 93.9264C154.592 93.1573 152.92 93.5901 152.151 94.8823C151.269 96.3738 149.641 97.2954 147.913 97.2954H120.481C117.763 97.2954 115.552 95.0847 115.552 92.3664C115.552 89.6481 117.763 87.4373 120.481 87.4373H138.811C140.315 87.4373 141.536 86.2167 141.536 84.7128C141.536 83.2089 140.315 81.9883 138.811 81.9883H120.478C114.755 81.9883 110.1 86.6433 110.1 92.3664C110.1 95.558 111.579 98.3821 113.852 100.288C111.937 102.172 110.744 104.787 110.744 107.677C110.744 110.878 112.233 113.711 114.518 115.614C112.616 117.494 111.435 120.1 111.435 122.984C111.435 126.471 113.176 129.548 115.823 131.431C114.191 133.265 113.17 135.654 113.17 138.294C113.17 144.017 117.825 148.672 123.548 148.672H140.624C144.267 148.672 147.689 146.726 149.551 143.591C150.32 142.298 149.893 140.626 148.601 139.857C147.306 139.094 145.634 139.515 144.868 140.807C143.98 142.298 142.352 143.223 140.624 143.223H123.548C120.83 143.223 118.619 141.012 118.619 138.294C118.619 135.576 120.83 133.365 123.548 133.365H143.806C147.449 133.365 150.874 131.416 152.733 128.28C153.502 126.985 153.075 125.313 151.783 124.547C150.479 123.765 148.813 124.204 148.05 125.497C147.15 127.013 145.562 127.916 143.806 127.916H121.813C119.095 127.916 116.884 125.702 116.884 122.984C116.884 120.265 119.095 118.055 121.813 118.055H147.007C150.65 118.055 154.072 116.109 155.934 112.973C156.703 111.681 156.276 110.009 154.984 109.24C153.686 108.474 152.017 108.897 151.251 110.189C150.351 111.703 148.763 112.606 147.007 112.606H121.125C118.407 112.606 116.196 110.395 116.196 107.677C116.196 104.958 118.404 102.744 121.125 102.744Z" fill="#795549"/>
<path d="M56.7451 166.734L58.4639 169.875L60.2139 166.734H62.3232L59.7607 170.969L62.3701 175.219H60.2764L58.4639 172.156L56.6982 175.219H54.5732L57.167 170.969L54.6357 166.734H56.7451ZM63.7295 178.406V166.734H65.6826V168.125H65.8076C66.1201 167.516 66.7451 166.625 68.2451 166.625C70.1982 166.625 71.7451 168.156 71.7451 170.984C71.7451 173.781 70.2451 175.375 68.2451 175.375C66.7764 175.375 66.1201 174.5 65.8076 173.875H65.7295V178.406H63.7295ZM65.6826 170.969C65.6826 172.625 66.4014 173.734 67.6982 173.734C69.0107 173.734 69.7139 172.578 69.7139 170.969C69.7139 169.391 69.0264 168.25 67.6982 168.25C66.4014 168.25 65.6826 169.328 65.6826 170.969ZM80.4482 174.547V171.594H77.4951V169.859H80.4482V166.906H82.167V169.859H85.1357V171.594H82.167V174.547H80.4482ZM95.792 163.906V175.219H93.7451V165.891H93.6826L91.042 167.578V165.719L93.8389 163.906H95.792ZM102.558 175.375C100.292 175.375 98.6357 174.031 98.5732 172.156H100.558C100.62 173.078 101.479 173.734 102.558 173.734C103.823 173.734 104.729 172.812 104.729 171.562C104.729 170.266 103.792 169.344 102.495 169.344C101.62 169.328 100.979 169.641 100.62 170.312H98.7295L99.417 163.906H106.104V165.609H101.089L100.745 168.609H100.854C101.292 168.109 102.12 167.75 103.042 167.75C105.151 167.75 106.698 169.328 106.698 171.5C106.698 173.766 104.995 175.375 102.558 175.375ZM120.604 163.609V164.891H112.245V163.609H115.542V162.406H117.276V163.609H120.604ZM116.433 165.297C118.495 165.281 119.901 166.109 119.901 167.422C119.901 168.531 118.87 169.273 117.276 169.469V170.219C118.472 170.164 119.667 170.062 120.792 169.922L120.917 171.109C117.886 171.625 114.542 171.672 112.042 171.672L111.808 170.328C112.933 170.336 114.214 170.328 115.542 170.281V169.453C113.94 169.266 112.933 168.523 112.948 167.422C112.933 166.109 114.323 165.281 116.433 165.297ZM116.433 166.469C115.323 166.453 114.604 166.797 114.62 167.422C114.604 168 115.323 168.344 116.433 168.328C117.511 168.344 118.229 168 118.245 167.422C118.229 166.797 117.511 166.453 116.433 166.469ZM123.526 162.516V172.016H121.776V162.516H123.526ZM123.526 172.594V176.609H121.776V173.953H113.808V172.594H123.526ZM138.464 169.219V170.625H125.573V169.219H138.464ZM136.901 172V176.641H135.183V173.391H126.995V172H136.901ZM137.026 166.562V167.953H127.151V162.984H136.901V164.375H128.886V166.562H137.026ZM142.308 163.906L142.136 171.891H140.37L140.183 163.906H142.308ZM141.261 175.344C140.589 175.344 140.042 174.797 140.042 174.125C140.042 173.469 140.589 172.922 141.261 172.922C141.901 172.922 142.464 173.469 142.464 174.125C142.464 174.797 141.901 175.344 141.261 175.344Z" fill="#FEFEFE"/>
</svg>
