<svg width="26" height="26" viewBox="0 0 26 26" fill="none" xmlns="http://www.w3.org/2000/svg">
<circle cx="12.6221" cy="12.6221" r="12.6221" fill="#795549"/>
<path d="M19.58 11.4258C19.58 11.2321 19.5338 11.0503 19.4564 10.8851C18.9399 9.21887 16.5219 9.34058 13.0824 9.25931C12.5074 9.24583 12.8363 8.5668 13.0381 7.07624C13.1695 6.1068 12.5443 4.61816 11.4936 4.61816C9.7612 4.61816 11.4278 5.9847 9.896 9.36407C9.07754 11.1697 7.24805 10.1583 7.24805 11.972V16.1005C7.24805 16.8065 7.31738 17.4851 8.31031 17.5968C9.27282 17.705 9.05636 18.391 10.4449 18.391H17.3946C18.1026 18.391 18.6784 17.8148 18.6784 17.1069C18.6784 16.8134 18.5755 16.5461 18.4095 16.3296C18.8024 16.1097 19.072 15.6945 19.072 15.2131C19.072 14.9204 18.9695 14.6531 18.8039 14.437C19.1979 14.2174 19.4683 13.8019 19.4683 13.3196C19.4683 12.9695 19.3266 12.6522 19.0982 12.4199C19.3897 12.1846 19.58 11.8287 19.58 11.4258Z" fill="#DBA67A"/>
<path d="M14.983 12.7091H18.2969C18.7475 12.7091 19.1704 12.468 19.4007 12.0801C19.4955 11.9203 19.4427 11.7134 19.2825 11.6183C19.1227 11.5232 18.9158 11.5767 18.8207 11.7365C18.7117 11.921 18.5103 12.035 18.2965 12.035H14.9033C14.567 12.035 14.2936 11.7616 14.2936 11.4253C14.2936 11.0891 14.567 10.8156 14.9033 10.8156H17.1707C17.3567 10.8156 17.5077 10.6646 17.5077 10.4786C17.5077 10.2926 17.3567 10.1416 17.1707 10.1416H14.9029C14.195 10.1416 13.6191 10.7174 13.6191 11.4253C13.6191 11.8201 13.8021 12.1695 14.0833 12.4052C13.8464 12.6382 13.6989 12.9617 13.6989 13.3192C13.6989 13.7151 13.883 14.0656 14.1657 14.3009C13.9303 14.5336 13.7844 14.8559 13.7844 15.2126C13.7844 15.644 13.9997 16.0245 14.3271 16.2575C14.1252 16.4844 13.9989 16.7798 13.9989 17.1064C13.9989 17.8143 14.5747 18.3901 15.2826 18.3901H17.3948C17.8455 18.3901 18.2688 18.1494 18.4991 17.7616C18.5942 17.6017 18.5415 17.3949 18.3816 17.2998C18.2214 17.2054 18.0146 17.2574 17.9198 17.4172C17.81 17.6017 17.6086 17.7161 17.3948 17.7161H15.2826C14.9464 17.7161 14.6729 17.4426 14.6729 17.1064C14.6729 16.7702 14.9464 16.4967 15.2826 16.4967H17.7885C18.2391 16.4967 18.6628 16.2556 18.8927 15.8677C18.9878 15.7075 18.9351 15.5007 18.7752 15.4059C18.6139 15.3093 18.4078 15.3636 18.3134 15.5234C18.2021 15.711 18.0057 15.8227 17.7885 15.8227H15.0681C14.7319 15.8227 14.4584 15.5488 14.4584 15.2126C14.4584 14.8763 14.7319 14.6029 15.0681 14.6029H18.1844C18.635 14.6029 19.0583 14.3622 19.2887 13.9743C19.3838 13.8145 19.331 13.6076 19.1712 13.5125C19.0106 13.4178 18.8041 13.4701 18.7094 13.63C18.5981 13.8172 18.4016 13.9289 18.1844 13.9289H14.983C14.6467 13.9289 14.3733 13.6554 14.3733 13.3192C14.3733 12.9829 14.6464 12.7091 14.983 12.7091Z" fill="#795549"/>
</svg>
