<svg width="376" height="116" viewBox="0 0 376 116" fill="none" xmlns="http://www.w3.org/2000/svg">
<path d="M54.2294 18.9717V13.1421C54.2294 11.5228 54.5448 9.88645 55.1755 8.23304C55.8232 6.56259 56.6584 5.01145 57.6812 3.57963C58.7209 2.13077 59.7948 0.937589 60.9027 8.91685e-05L66.2209 2.91486C65.3005 4.41486 64.5675 5.98304 64.0221 7.6194C63.4766 9.23872 63.2124 11.0711 63.2294 13.1166V18.9717H54.2294ZM72.5427 54.9717V2.60804H108.287V12.8865H85.1989V23.6251H106.011V33.9291H85.1989V54.9717H72.5427ZM114.66 54.9717V2.60804H127.316V44.6933H149.1V54.9717H114.66ZM203.036 28.7899C203.036 34.5512 201.928 39.4347 199.712 43.4404C197.496 47.4461 194.496 50.4887 190.712 52.5683C186.945 54.6478 182.718 55.6876 178.031 55.6876C173.326 55.6876 169.09 54.6393 165.323 52.5427C161.556 50.4461 158.565 47.4035 156.349 43.4149C154.15 39.4092 153.05 34.5342 153.05 28.7899C153.05 23.0285 154.15 18.145 156.349 14.1393C158.565 10.1336 161.556 7.091 165.323 5.01145C169.09 2.93191 173.326 1.89213 178.031 1.89213C182.718 1.89213 186.945 2.93191 190.712 5.01145C194.496 7.091 197.496 10.1336 199.712 14.1393C201.928 18.145 203.036 23.0285 203.036 28.7899ZM190.099 28.7899C190.099 25.3808 189.613 22.5001 188.641 20.1478C187.687 17.7955 186.306 16.0143 184.499 14.8041C182.71 13.5938 180.553 12.9887 178.031 12.9887C175.525 12.9887 173.369 13.5938 171.562 14.8041C169.755 16.0143 168.366 17.7955 167.394 20.1478C166.44 22.5001 165.962 25.3808 165.962 28.7899C165.962 32.199 166.44 35.0796 167.394 37.4319C168.366 39.7842 169.755 41.5654 171.562 42.7757C173.369 43.9859 175.525 44.591 178.031 44.591C180.553 44.591 182.71 43.9859 184.499 42.7757C186.306 41.5654 187.687 39.7842 188.641 37.4319C189.613 35.0796 190.099 32.199 190.099 28.7899ZM257.957 21.5796H245.173C245.002 20.2671 244.653 19.0825 244.124 18.0257C243.596 16.9688 242.897 16.0654 242.028 15.3154C241.158 14.5654 240.127 13.9944 238.934 13.6024C237.758 13.1933 236.454 12.9887 235.022 12.9887C232.482 12.9887 230.292 13.6109 228.451 14.8552C226.627 16.0995 225.221 17.8978 224.232 20.2501C223.261 22.6024 222.775 25.449 222.775 28.7899C222.775 32.2671 223.269 35.1819 224.258 37.5342C225.264 39.8694 226.67 41.6336 228.477 42.8268C230.3 44.0029 232.457 44.591 234.945 44.591C236.343 44.591 237.613 44.412 238.755 44.0541C239.914 43.6961 240.928 43.1762 241.798 42.4944C242.684 41.7955 243.408 40.9518 243.971 39.9632C244.55 38.9575 244.951 37.824 245.173 36.5626L257.957 36.6393C257.735 38.9575 257.062 41.2416 255.937 43.4916C254.829 45.7416 253.303 47.7955 251.36 49.6535C249.417 51.4944 247.048 52.9603 244.252 54.0512C241.474 55.1421 238.286 55.6876 234.69 55.6876C229.951 55.6876 225.707 54.6478 221.957 52.5683C218.224 50.4717 215.275 47.4205 213.11 43.4149C210.945 39.4092 209.863 34.5342 209.863 28.7899C209.863 23.0285 210.962 18.145 213.161 14.1393C215.36 10.1336 218.335 7.091 222.085 5.01145C225.835 2.93191 230.036 1.89213 234.69 1.89213C237.86 1.89213 240.792 2.33531 243.485 3.22168C246.178 4.091 248.548 5.3694 250.593 7.0569C252.639 8.72736 254.3 10.7813 255.579 13.2188C256.857 15.6563 257.65 18.4433 257.957 21.5796ZM275.19 54.9717H261.587L279.255 2.60804H296.104L313.772 54.9717H300.17L287.871 15.8012H287.462L275.19 54.9717ZM273.374 34.3637H301.806V43.9774H273.374V34.3637ZM322.433 2.60804V8.43759C322.433 10.0569 322.109 11.6933 321.462 13.3467C320.831 14.983 320.004 16.5171 318.982 17.949C317.959 19.3808 316.876 20.591 315.734 21.5796L310.416 18.6649C311.2 17.3694 311.899 15.912 312.513 14.2927C313.126 12.6563 313.433 10.7132 313.433 8.46315V2.60804H322.433Z" fill="#795549"/>
<path d="M141.925 78.4198V80.4653H134.527V78.4198H141.925ZM136.556 91.5107V76.9028C136.556 76.0846 136.735 75.4056 137.093 74.8659C137.451 74.3204 137.925 73.9142 138.516 73.6471C139.107 73.3744 139.749 73.238 140.442 73.238C140.954 73.238 141.391 73.2806 141.755 73.3659C142.118 73.4454 142.388 73.5193 142.564 73.5874L141.968 75.6499C141.848 75.6159 141.695 75.5761 141.508 75.5306C141.32 75.4795 141.093 75.4539 140.826 75.4539C140.206 75.4539 139.763 75.6073 139.496 75.9142C139.235 76.221 139.104 76.6642 139.104 77.2437V91.5107H136.556ZM149.553 91.7749C148.326 91.7749 147.255 91.4937 146.34 90.9312C145.425 90.3687 144.715 89.5818 144.209 88.5704C143.704 87.559 143.451 86.3772 143.451 85.0249C143.451 83.667 143.704 82.4795 144.209 81.4624C144.715 80.4454 145.425 79.6556 146.34 79.0931C147.255 78.5306 148.326 78.2494 149.553 78.2494C150.78 78.2494 151.851 78.5306 152.766 79.0931C153.681 79.6556 154.391 80.4454 154.897 81.4624C155.402 82.4795 155.655 83.667 155.655 85.0249C155.655 86.3772 155.402 87.559 154.897 88.5704C154.391 89.5818 153.681 90.3687 152.766 90.9312C151.851 91.4937 150.78 91.7749 149.553 91.7749ZM149.561 89.6357C150.357 89.6357 151.016 89.4255 151.539 89.0051C152.061 88.5846 152.448 88.0249 152.698 87.3261C152.954 86.6272 153.081 85.8573 153.081 85.0164C153.081 84.1812 152.954 83.4142 152.698 82.7153C152.448 82.0107 152.061 81.4454 151.539 81.0193C151.016 80.5931 150.357 80.3801 149.561 80.3801C148.76 80.3801 148.096 80.5931 147.567 81.0193C147.044 81.4454 146.655 82.0107 146.4 82.7153C146.15 83.4142 146.025 84.1812 146.025 85.0164C146.025 85.8573 146.15 86.6272 146.4 87.3261C146.655 88.0249 147.044 88.5846 147.567 89.0051C148.096 89.4255 148.76 89.6357 149.561 89.6357ZM158.5 91.5107V78.4198H160.963V80.4994H161.099C161.338 79.7948 161.758 79.2409 162.36 78.8374C162.968 78.4284 163.656 78.2238 164.423 78.2238C164.582 78.2238 164.77 78.2295 164.985 78.2409C165.207 78.2522 165.38 78.2664 165.505 78.2835V80.721C165.403 80.6926 165.221 80.6613 164.96 80.6272C164.699 80.5874 164.437 80.5676 164.176 80.5676C163.574 80.5676 163.037 80.6954 162.565 80.9511C162.099 81.2011 161.73 81.5505 161.457 81.9994C161.184 82.4426 161.048 82.9482 161.048 83.5164V91.5107H158.5ZM175.741 91.5107H172.946L179.227 74.0562H182.27L188.551 91.5107H185.755L180.821 77.2267H180.684L175.741 91.5107ZM176.21 84.6755H185.278V86.8914H176.21V84.6755ZM196.722 91.5107H191.071V74.0562H196.901C198.611 74.0562 200.08 74.4056 201.307 75.1045C202.534 75.7977 203.475 76.7948 204.128 78.096C204.787 79.3914 205.117 80.9454 205.117 82.7579C205.117 84.5761 204.784 86.1386 204.12 87.4454C203.461 88.7522 202.506 89.7579 201.256 90.4624C200.006 91.1613 198.495 91.5107 196.722 91.5107ZM193.705 89.2096H196.577C197.907 89.2096 199.012 88.9596 199.892 88.4596C200.773 87.9539 201.432 87.2238 201.87 86.2693C202.307 85.309 202.526 84.1386 202.526 82.7579C202.526 81.3886 202.307 80.2267 201.87 79.2721C201.438 78.3176 200.793 77.5931 199.935 77.0988C199.077 76.6045 198.012 76.3573 196.739 76.3573H193.705V89.2096ZM208.392 91.5107V74.0562H211.025V81.6414H219.727V74.0562H222.369V91.5107H219.727V83.8999H211.025V91.5107H208.392ZM231.855 91.5107H226.204V74.0562H232.034C233.744 74.0562 235.213 74.4056 236.44 75.1045C237.667 75.7977 238.608 76.7948 239.261 78.096C239.92 79.3914 240.25 80.9454 240.25 82.7579C240.25 84.5761 239.917 86.1386 239.253 87.4454C238.593 88.7522 237.639 89.7579 236.389 90.4624C235.139 91.1613 233.628 91.5107 231.855 91.5107ZM228.838 89.2096H231.71C233.039 89.2096 234.145 88.9596 235.025 88.4596C235.906 87.9539 236.565 87.2238 237.003 86.2693C237.44 85.309 237.659 84.1386 237.659 82.7579C237.659 81.3886 237.44 80.2267 237.003 79.2721C236.571 78.3176 235.926 77.5931 235.068 77.0988C234.21 76.6045 233.145 76.3573 231.872 76.3573H228.838V89.2096Z" fill="#795549"/>
</svg>
