<svg width="376" height="244" viewBox="0 0 376 244" fill="none" xmlns="http://www.w3.org/2000/svg">
<path d="M97.4682 11.6408C98.7767 12.9189 105.243 16.7583 106.552 20.6204C107.865 24.4725 110.569 46.3624 118.346 52.7732C126.365 59.3716 156.479 56.7469 162.23 53.8458C175.102 47.3387 176.588 29.3566 178.828 20.24C180.085 15.0795 187.828 15.0389 187.828 15.0389C187.828 15.0389 195.575 14.9983 196.891 20.1437C199.224 29.24 200.913 47.2018 213.846 53.572C219.63 56.4249 249.77 58.7376 257.735 52.058C265.431 45.5712 267.894 23.6508 269.167 19.7785C270.43 15.9062 276.868 12.011 278.146 10.7126C279.44 9.42186 279.414 4.26637 278.101 2.9756C275.514 0.414335 245.05 -1.72851 212.276 2.0297C205.744 2.77779 203.261 4.6493 187.769 4.72538C172.295 4.81414 169.78 2.96291 163.237 2.28582C130.453 -1.13765 100.007 1.31457 97.4352 3.90373C96.1495 5.19958 96.1799 10.3576 97.4682 11.6408Z" fill="#795549"/>
<path d="M124.319 69.3093C124.705 70.349 134.177 94.5491 187.712 94.6379C241.242 94.7317 250.793 70.562 251.183 69.5274C251.65 68.2797 250.813 66.9915 249.177 66.327C247.529 65.6981 245.467 65.8757 244.09 66.7683C243.928 66.8774 227.498 77.4216 187.745 77.3684C147.954 77.2948 131.559 66.6846 131.415 66.5857C130.608 66.0405 129.513 65.7438 128.428 65.7438C127.725 65.7387 127.005 65.863 126.343 66.114C124.692 66.7582 123.853 68.0616 124.319 69.3093Z" fill="#795549"/>
<path d="M147.598 4.22559L154.295 4.22559L141.249 52.6689L134.551 52.6689L147.598 4.22559Z" fill="#F5F0E5"/>
<path d="M254.487 4.22559L261.183 4.22559L248.137 52.6689L241.44 52.6689L254.487 4.22559Z" fill="#F5F0E5"/>
<path d="M158.28 4.22559L160.802 4.22559L147.756 52.6689L145.233 52.6689L158.28 4.22559Z" fill="#F5F0E5"/>
<path d="M54.2294 147.064V141.235C54.2294 139.616 54.5448 137.979 55.1755 136.326C55.8232 134.655 56.6584 133.104 57.6812 131.672C58.7209 130.224 59.7948 129.03 60.9027 128.093L66.2209 131.008C65.3005 132.508 64.5675 134.076 64.0221 135.712C63.4766 137.331 63.2124 139.164 63.2294 141.209V147.064H54.2294ZM72.5427 183.064V130.701H108.287V140.979H85.1989V151.718H106.011V162.022H85.1989V183.064H72.5427ZM114.66 183.064V130.701H127.316V172.786H149.1V183.064H114.66ZM203.036 156.883C203.036 162.644 201.928 167.528 199.712 171.533C197.496 175.539 194.496 178.581 190.712 180.661C186.945 182.741 182.718 183.78 178.031 183.78C173.326 183.78 169.09 182.732 165.323 180.635C161.556 178.539 158.565 175.496 156.349 171.508C154.15 167.502 153.05 162.627 153.05 156.883C153.05 151.121 154.15 146.238 156.349 142.232C158.565 138.226 161.556 135.184 165.323 133.104C169.09 131.025 173.326 129.985 178.031 129.985C182.718 129.985 186.945 131.025 190.712 133.104C194.496 135.184 197.496 138.226 199.712 142.232C201.928 146.238 203.036 151.121 203.036 156.883ZM190.099 156.883C190.099 153.474 189.613 150.593 188.641 148.241C187.687 145.888 186.306 144.107 184.499 142.897C182.71 141.687 180.553 141.081 178.031 141.081C175.525 141.081 173.369 141.687 171.562 142.897C169.755 144.107 168.366 145.888 167.394 148.241C166.44 150.593 165.962 153.474 165.962 156.883C165.962 160.292 166.44 163.172 167.394 165.525C168.366 167.877 169.755 169.658 171.562 170.868C173.369 172.079 175.525 172.684 178.031 172.684C180.553 172.684 182.71 172.079 184.499 170.868C186.306 169.658 187.687 167.877 188.641 165.525C189.613 163.172 190.099 160.292 190.099 156.883ZM257.957 149.672H245.173C245.002 148.36 244.653 147.175 244.124 146.118C243.596 145.062 242.897 144.158 242.028 143.408C241.158 142.658 240.127 142.087 238.934 141.695C237.758 141.286 236.454 141.081 235.022 141.081C232.482 141.081 230.292 141.704 228.451 142.948C226.627 144.192 225.221 145.991 224.232 148.343C223.261 150.695 222.775 153.542 222.775 156.883C222.775 160.36 223.269 163.275 224.258 165.627C225.264 167.962 226.67 169.726 228.477 170.92C230.3 172.096 232.457 172.684 234.945 172.684C236.343 172.684 237.613 172.505 238.755 172.147C239.914 171.789 240.928 171.269 241.798 170.587C242.684 169.888 243.408 169.045 243.971 168.056C244.55 167.05 244.951 165.917 245.173 164.655L257.957 164.732C257.735 167.05 257.062 169.334 255.937 171.584C254.829 173.834 253.303 175.888 251.36 177.746C249.417 179.587 247.048 181.053 244.252 182.144C241.474 183.235 238.286 183.78 234.69 183.78C229.951 183.78 225.707 182.741 221.957 180.661C218.224 178.564 215.275 175.513 213.11 171.508C210.945 167.502 209.863 162.627 209.863 156.883C209.863 151.121 210.962 146.238 213.161 142.232C215.36 138.226 218.335 135.184 222.085 133.104C225.835 131.025 230.036 129.985 234.69 129.985C237.86 129.985 240.792 130.428 243.485 131.314C246.178 132.184 248.548 133.462 250.593 135.15C252.639 136.82 254.3 138.874 255.579 141.312C256.857 143.749 257.65 146.536 257.957 149.672ZM275.19 183.064H261.587L279.255 130.701H296.104L313.772 183.064H300.17L287.871 143.894H287.462L275.19 183.064ZM273.374 162.456H301.806V172.07H273.374V162.456ZM322.433 130.701V136.53C322.433 138.15 322.109 139.786 321.462 141.439C320.831 143.076 320.004 144.61 318.982 146.042C317.959 147.474 316.876 148.684 315.734 149.672L310.416 146.758C311.2 145.462 311.899 144.005 312.513 142.385C313.126 140.749 313.433 138.806 313.433 136.556V130.701H322.433Z" fill="#795549"/>
<path d="M141.925 206.513V208.558H134.527V206.513H141.925ZM136.556 219.604V204.996C136.556 204.177 136.735 203.498 137.093 202.959C137.451 202.413 137.925 202.007 138.516 201.74C139.107 201.467 139.749 201.331 140.442 201.331C140.954 201.331 141.391 201.373 141.755 201.459C142.118 201.538 142.388 201.612 142.564 201.68L141.968 203.743C141.848 203.709 141.695 203.669 141.508 203.623C141.32 203.572 141.093 203.547 140.826 203.547C140.206 203.547 139.763 203.7 139.496 204.007C139.235 204.314 139.104 204.757 139.104 205.336V219.604H136.556ZM149.553 219.868C148.326 219.868 147.255 219.586 146.34 219.024C145.425 218.461 144.715 217.675 144.209 216.663C143.704 215.652 143.451 214.47 143.451 213.118C143.451 211.76 143.704 210.572 144.209 209.555C144.715 208.538 145.425 207.748 146.34 207.186C147.255 206.623 148.326 206.342 149.553 206.342C150.78 206.342 151.851 206.623 152.766 207.186C153.681 207.748 154.391 208.538 154.897 209.555C155.402 210.572 155.655 211.76 155.655 213.118C155.655 214.47 155.402 215.652 154.897 216.663C154.391 217.675 153.681 218.461 152.766 219.024C151.851 219.586 150.78 219.868 149.553 219.868ZM149.561 217.729C150.357 217.729 151.016 217.518 151.539 217.098C152.061 216.677 152.448 216.118 152.698 215.419C152.954 214.72 153.081 213.95 153.081 213.109C153.081 212.274 152.954 211.507 152.698 210.808C152.448 210.104 152.061 209.538 151.539 209.112C151.016 208.686 150.357 208.473 149.561 208.473C148.76 208.473 148.096 208.686 147.567 209.112C147.044 209.538 146.655 210.104 146.4 210.808C146.15 211.507 146.025 212.274 146.025 213.109C146.025 213.95 146.15 214.72 146.4 215.419C146.655 216.118 147.044 216.677 147.567 217.098C148.096 217.518 148.76 217.729 149.561 217.729ZM158.5 219.604V206.513H160.963V208.592H161.099C161.338 207.888 161.758 207.334 162.36 206.93C162.968 206.521 163.656 206.317 164.423 206.317C164.582 206.317 164.77 206.322 164.985 206.334C165.207 206.345 165.38 206.359 165.505 206.376V208.814C165.403 208.785 165.221 208.754 164.96 208.72C164.699 208.68 164.437 208.66 164.176 208.66C163.574 208.66 163.037 208.788 162.565 209.044C162.099 209.294 161.73 209.643 161.457 210.092C161.184 210.535 161.048 211.041 161.048 211.609V219.604H158.5ZM175.741 219.604H172.946L179.227 202.149H182.27L188.551 219.604H185.755L180.821 205.319H180.684L175.741 219.604ZM176.21 212.768H185.278V214.984H176.21V212.768ZM196.722 219.604H191.071V202.149H196.901C198.611 202.149 200.08 202.498 201.307 203.197C202.534 203.89 203.475 204.888 204.128 206.189C204.787 207.484 205.117 209.038 205.117 210.851C205.117 212.669 204.784 214.231 204.12 215.538C203.461 216.845 202.506 217.851 201.256 218.555C200.006 219.254 198.495 219.604 196.722 219.604ZM193.705 217.302H196.577C197.907 217.302 199.012 217.052 199.892 216.552C200.773 216.047 201.432 215.317 201.87 214.362C202.307 213.402 202.526 212.231 202.526 210.851C202.526 209.481 202.307 208.319 201.87 207.365C201.438 206.41 200.793 205.686 199.935 205.192C199.077 204.697 198.012 204.45 196.739 204.45H193.705V217.302ZM208.392 219.604V202.149H211.025V209.734H219.727V202.149H222.369V219.604H219.727V211.993H211.025V219.604H208.392ZM231.855 219.604H226.204V202.149H232.034C233.744 202.149 235.213 202.498 236.44 203.197C237.667 203.89 238.608 204.888 239.261 206.189C239.92 207.484 240.25 209.038 240.25 210.851C240.25 212.669 239.917 214.231 239.253 215.538C238.593 216.845 237.639 217.851 236.389 218.555C235.139 219.254 233.628 219.604 231.855 219.604ZM228.838 217.302H231.71C233.039 217.302 234.145 217.052 235.025 216.552C235.906 216.047 236.565 215.317 237.003 214.362C237.44 213.402 237.659 212.231 237.659 210.851C237.659 209.481 237.44 208.319 237.003 207.365C236.571 206.41 235.926 205.686 235.068 205.192C234.21 204.697 233.145 204.45 231.872 204.45H228.838V217.302Z" fill="#795549"/>
</svg>
