<svg width="195" height="134" viewBox="0 0 195 134" fill="none" xmlns="http://www.w3.org/2000/svg">
<path d="M97.2321 126.726C150.932 126.726 194.464 113.477 194.464 97.1334C194.464 80.79 150.932 67.541 97.2321 67.541C43.5323 67.541 0 80.79 0 97.1334C0 113.477 43.5323 126.726 97.2321 126.726Z" fill="#EFDDC3"/>
<path d="M97.2321 133.066C150.932 133.066 194.464 119.817 194.464 103.473C194.464 87.1298 150.932 73.8809 97.2321 73.8809C43.5323 73.8809 0 87.1298 0 103.473C0 119.817 43.5323 133.066 97.2321 133.066Z" fill="#795549"/>
<path d="M70.9626 72.8259C70.9626 50.9348 88.4755 33.4219 97.232 33.4219C105.988 33.4219 123.501 50.9348 123.501 72.8259C123.501 90.3388 110.367 103.473 97.232 103.473C84.0973 103.473 70.9626 90.3388 70.9626 72.8259Z" fill="#F2C14E"/>
<path d="M97.2322 33.4219V64.0694V33.4219Z" fill="black"/>
<path d="M97.2322 33.4219V64.0694" stroke="#D6A63D" stroke-width="3" stroke-linecap="round"/>
<path d="M97.2322 68.4486L97.2322 18.5195L97.2322 68.4486Z" fill="black"/>
<path d="M97.2322 68.4486L97.2322 18.5195" stroke="#3BAA5C" stroke-width="6" stroke-linecap="round"/>
<path d="M97.2322 15.9084C75.3411 -5.98269 44.6935 -5.98269 31.5588 20.2866C57.8282 33.4213 79.7193 33.4213 97.2322 15.9084Z" fill="#56C271"/>
<path d="M97.2322 15.9084C119.123 -5.98269 149.771 -5.98269 162.906 20.2866C136.636 33.4213 114.745 33.4213 97.2322 15.9084Z" fill="#56C271"/>
<path opacity="0.65" d="M97.232 15.9091C79.7191 -1.60381 57.828 -1.60381 49.0715 15.9091C68.7735 24.6655 84.0973 24.6655 97.232 15.9091Z" fill="#7BE08F"/>
<path opacity="0.65" d="M97.2322 15.9091C114.745 -1.60381 136.636 -1.60381 145.393 15.9091C125.691 24.6655 110.367 24.6655 97.2322 15.9091Z" fill="#7BE08F"/>
</svg>
