<svg width="195" height="93" viewBox="0 0 195 93" fill="none" xmlns="http://www.w3.org/2000/svg">
<path d="M97.2321 86.6643C150.932 86.6643 194.464 73.4153 194.464 57.0719C194.464 40.7285 150.932 27.4795 97.2321 27.4795C43.5323 27.4795 0 40.7285 0 57.0719C0 73.4153 43.5323 86.6643 97.2321 86.6643Z" fill="#EFDDC3"/>
<path d="M97.2321 93.0041C150.932 93.0041 194.464 79.7552 194.464 63.4117C194.464 47.0683 150.932 33.8193 97.2321 33.8193C43.5323 33.8193 0 47.0683 0 63.4117C0 79.7552 43.5323 93.0041 97.2321 93.0041Z" fill="#795549"/>
<path d="M97.2323 67.6398C111.241 67.6398 122.597 52.4981 122.597 33.8199C122.597 15.1417 111.241 0 97.2323 0C83.2237 0 71.8674 15.1417 71.8674 33.8199C71.8674 52.4981 83.2237 67.6398 97.2323 67.6398Z" fill="#F2C14E"/>
<path d="M84.5498 14.7969C97.2323 19.0244 97.2323 52.8442 84.5498 57.0717" stroke="#D6A63D" stroke-width="3" stroke-linecap="round"/>
<path d="M109.915 14.7969C97.2322 19.0244 97.2322 52.8442 109.915 57.0717" stroke="#D6A63D" stroke-width="3" stroke-linecap="round"/>
</svg>
