<svg width="205" height="159" viewBox="0 0 205 159" fill="none" xmlns="http://www.w3.org/2000/svg">
<path d="M102.041 151.844C155.741 151.844 199.273 138.595 199.273 122.252C199.273 105.908 155.741 92.6592 102.041 92.6592C48.3414 92.6592 4.80908 105.908 4.80908 122.252C4.80908 138.595 48.3414 151.844 102.041 151.844Z" fill="#EFDDC3"/>
<path d="M102.041 158.184C155.741 158.184 199.273 144.935 199.273 128.591C199.273 112.248 155.741 98.999 102.041 98.999C48.3414 98.999 4.80908 112.248 4.80908 128.591C4.80908 144.935 48.3414 158.184 102.041 158.184Z" fill="#795549"/>
<path d="M90.835 119.82C90.835 113.554 98.3058 108.541 102.041 108.541C105.777 108.541 113.247 113.554 113.247 119.82C113.247 124.832 107.644 128.592 102.041 128.592C96.4381 128.592 90.835 124.832 90.835 119.82Z" fill="#F2C14E"/>
<path d="M102.041 115.25V10.5791V115.25Z" fill="black"/>
<path d="M102.041 115.25V10.5791" stroke="#2F9E4F" stroke-width="8" stroke-linecap="round"/>
<path d="M102.041 29.2172C59.0764 11.1394 10.7412 18.3705 0 47.295C48.3352 61.7572 85.9293 58.1417 102.041 29.2172Z" fill="#56C271"/>
<path d="M102.041 29.2172C145.006 11.1394 193.341 18.3705 204.082 47.295C155.747 61.7572 118.153 58.1417 102.041 29.2172Z" fill="#56C271"/>
<path d="M102.041 7.52411C69.8176 -6.93813 32.2236 0.292993 21.4824 21.9864C59.0765 32.833 85.9294 29.2175 102.041 7.52411Z" fill="#7BE08F"/>
<path d="M102.041 7.52411C134.264 -6.93813 171.859 0.292993 182.6 21.9864C145.006 32.833 118.153 29.2175 102.041 7.52411Z" fill="#7BE08F"/>
</svg>
