<svg width="204" height="205" viewBox="0 0 204 205" fill="none" xmlns="http://www.w3.org/2000/svg">
<path d="M101.367 197.722C155.067 197.722 198.6 184.473 198.6 168.13C198.6 151.786 155.067 138.537 101.367 138.537C47.6676 138.537 4.13525 151.786 4.13525 168.13C4.13525 184.473 47.6676 197.722 101.367 197.722Z" fill="#EFDDC3"/>
<path d="M101.367 204.062C155.067 204.062 198.6 190.813 198.6 174.469C198.6 158.126 155.067 144.877 101.367 144.877C47.6676 144.877 4.13525 158.126 4.13525 174.469C4.13525 190.813 47.6676 204.062 101.367 204.062Z" fill="#795549"/>
<path d="M101.367 179.563V37.3984" stroke="#C1694F" stroke-width="14" stroke-linecap="round"/>
<path d="M68.4453 175.686L81.6925 169.295L96.6963 155.374" stroke="#C1694F" stroke-width="12" stroke-linecap="round"/>
<path d="M133.917 175.686L120.67 169.295L105.667 155.374" stroke="#C1694F" stroke-width="12" stroke-linecap="round"/>
<path d="M92.7974 90.2138C140.763 74.0633 191.968 86.8031 200.614 120.262C147.24 131.844 107.214 124.187 92.7974 90.2138Z" fill="#288643"/>
<path d="M92.7054 68.8748C135.318 54.5267 180.808 65.8447 188.49 95.5693C141.072 105.859 105.513 99.0567 92.7054 68.8748Z" fill="#3BAA5C"/>
<path d="M89.3753 44.2371C131.988 29.889 177.478 41.207 185.159 70.9316C137.742 81.2211 102.183 74.419 89.3753 44.2371Z" fill="#56C271"/>
<path d="M85.7049 21.531C118.502 8.42165 155.763 17.2102 165.592 39.3316C127.58 48.6052 100.9 43.8758 85.7049 21.531Z" fill="#7BE08F"/>
<path d="M110.611 90.2138C62.6448 74.0633 11.4404 86.8031 2.79392 120.262C56.1681 131.844 96.1946 124.187 110.611 90.2138Z" fill="#288643"/>
<path d="M110.703 68.8748C68.0899 54.5267 22.6001 65.8447 14.9186 95.5693C62.336 105.859 97.8955 99.0567 110.703 68.8748Z" fill="#3BAA5C"/>
<path d="M114.033 44.2371C71.42 29.889 25.9302 41.207 18.2487 70.9316C65.6661 81.2211 101.226 74.419 114.033 44.2371Z" fill="#56C271"/>
<path d="M117.703 21.531C84.9062 8.42165 47.6454 17.2102 37.8159 39.3316C75.8286 48.6052 102.508 43.8758 117.703 21.531Z" fill="#7BE08F"/>
<path d="M117.744 6.36034C89.9957 -4.73109 58.4706 2.70464 50.1541 21.4208C82.3154 29.2669 104.888 25.2655 117.744 6.36034Z" fill="#96EEA7"/>
<path d="M85.6639 6.36034C113.413 -4.73109 144.938 2.70464 153.254 21.4208C121.093 29.2669 98.5203 25.2655 85.6639 6.36034Z" fill="#96EEA7"/>
<path d="M99.042 97.4287C103.46 97.4287 107.042 93.847 107.042 89.4287C107.042 85.0104 103.46 81.4287 99.042 81.4287C94.6237 81.4287 91.042 85.0104 91.042 89.4287C91.042 93.847 94.6237 97.4287 99.042 97.4287Z" fill="#FF5A5F"/>
<path d="M62.7402 77.249C67.1585 77.249 70.7402 73.6673 70.7402 69.249C70.7402 64.8307 67.1585 61.249 62.7402 61.249C58.322 61.249 54.7402 64.8307 54.7402 69.249C54.7402 73.6673 58.322 77.249 62.7402 77.249Z" fill="#FF5A5F"/>
<path d="M127.05 34.418C131.468 34.418 135.05 30.8362 135.05 26.418C135.05 21.9997 131.468 18.418 127.05 18.418C122.632 18.418 119.05 21.9997 119.05 26.418C119.05 30.8362 122.632 34.418 127.05 34.418Z" fill="#FF5A5F"/>
<path d="M151.196 77.249C155.615 77.249 159.196 73.6673 159.196 69.249C159.196 64.8307 155.615 61.249 151.196 61.249C146.778 61.249 143.196 64.8307 143.196 69.249C143.196 73.6673 146.778 77.249 151.196 77.249Z" fill="#FF5A5F"/>
</svg>
