<svg width="183" height="95" viewBox="0 0 183 95" fill="none" xmlns="http://www.w3.org/2000/svg">
<path d="M0.981859 11.6408C2.29039 12.9189 8.75695 16.7583 10.0655 20.6204C11.3791 24.4725 14.0823 46.3624 21.86 52.7732C29.8785 59.3716 59.9924 56.7469 65.7438 53.8458C78.616 47.3387 80.1021 29.3566 82.3413 20.24C83.5991 15.0795 91.3412 15.0389 91.3412 15.0389C91.3412 15.0389 99.0884 14.9983 100.405 20.1437C102.738 29.24 104.426 47.2018 117.36 53.572C123.144 56.4249 153.283 58.7376 161.249 52.058C168.945 45.5712 171.407 23.6508 172.68 19.7785C173.943 15.9062 180.382 12.011 181.66 10.7126C182.953 9.42186 182.928 4.26637 181.614 2.9756C179.028 0.414335 148.564 -1.72851 115.79 2.0297C109.257 2.77779 106.775 4.6493 91.2829 4.72538C75.8088 4.81414 73.2932 2.96291 66.7505 2.28582C33.9664 -1.13765 3.5203 1.31457 0.948891 3.90373C-0.336813 5.19958 -0.306381 10.3576 0.981859 11.6408Z" fill="#795549"/>
<path d="M27.8331 69.3093C28.2185 70.349 37.6902 94.5491 91.2257 94.6379C144.756 94.7317 154.306 70.562 154.697 69.5274C155.163 68.2797 154.327 66.9915 152.691 66.327C151.043 65.6981 148.981 65.8757 147.604 66.7683C147.442 66.8774 131.011 77.4216 91.2586 77.3684C51.4678 77.2948 35.0731 66.6846 34.9286 66.5857C34.1221 66.0405 33.0267 65.7438 31.9413 65.7438C31.2389 65.7387 30.5186 65.863 29.8567 66.114C28.2059 66.7582 27.3665 68.0616 27.8331 69.3093Z" fill="#795549"/>
<path d="M51.1118 4.22559L57.8091 4.22559L44.7622 52.6689L38.0649 52.6689L51.1118 4.22559Z" fill="#F5F0E5"/>
<path d="M158 4.22559L164.696 4.22559L151.65 52.6689L144.953 52.6689L158 4.22559Z" fill="#F5F0E5"/>
<path d="M61.7939 4.22559L64.3154 4.22559L51.2695 52.6689L48.7471 52.6689L61.7939 4.22559Z" fill="#F5F0E5"/>
</svg>
